<svg width="360" height="16" xmlns:xlink="http://www.w3.org/1999/xlink" xmlns="http://www.w3.org/2000/svg"><symbol id="a"><path xmlns="http://www.w3.org/2000/svg" fill-rule="evenodd" clip-rule="evenodd" d="M6.834.785c.2.048.36.152.478.313a.698.698 0 01.13.543.763.763 0 01-.053.181L6.161 5.187l2.176.345c.294.062.49.236.589.52.099.285.035.536-.191.753l-5.13 5.286c-.19.191-.403.268-.637.231a.636.636 0 01-.27-.114.655.655 0 01-.323-.383.76.76 0 01.007-.497l1.306-3.851-2.173-.368c-.296-.047-.493-.217-.59-.509-.098-.292-.034-.547.192-.764l5.057-4.823.054-.04A.76.76 0 016.74.77l.094.016z"/></symbol><use xlink:href="#a" fill="#3d3e42"/><use xlink:href="#a" x="18" fill="#727275"/><use xlink:href="#a" x="36" fill="#fff"/><use xlink:href="#a" x="108" fill="#F1C846"/><use xlink:href="#a" x="144" fill="#959697"/></svg>